# xmcd
#
# Track frame offsets:
#	183
#	10558
#	24340
#	34798
#	47475
#	58658
#	71578
#	82960
#	96928
#	109013
#	120843
#	131580
#	145685
#	159378
#	172193
#	186493
#	197438
#	209565
#
# Disc length: 2936 seconds
#
# Revision: 0
# Processed by: cddbd v1.4PL0 Copyright (c) Steve Scherf et al.
# Submitted via: dBpowerAMP V4.0
#
DISCID=ec0b7612
DTITLE=Ray Charles - Music goes on
DYEAR=1900
DGENRE=Blues
TTITLE0=Going down slow
TTITLE1=Alone in the city
TTITLE2=Sitting on top of the world
TTITLE3=Rocking chair blues
TTITLE4=A sentimal blues
TTITLE5=Can anyone ask for more
TTITLE6=Let's have a ball
TTITLE7=This love of mine
TTITLE8=Can't you see darling
TTITLE9=If I give you my love
TTITLE10=Sitting on top of the world
TTITLE11=Kiss me baby
TTITLE12=I'm going down the river
TTITLE13=The snow is falling
TTITLE14=Blues is my middle name
TTITLE15=I wonder who's kissing her now
TTITLE16=See see rider
TTITLE17=Hey now
EXTD=
EXTT0=
EXTT1=
EXTT2=
EXTT3=
EXTT4=
EXTT5=
EXTT6=
EXTT7=
EXTT8=
EXTT9=
EXTT10=
EXTT11=
EXTT12=
EXTT13=
EXTT14=
EXTT15=
EXTT16=
EXTT17=
PLAYORDER=
